<svg xmlns="http://www.w3.org/2000/svg" xmlns:xlink="http://www.w3.org/1999/xlink" xmlns:sketch="http://www.bohemiancoding.com/sketch/ns" width="20px" height="16px" viewBox="0 0 20 16" version="1.1">
    <style>
	.style0{
		fill:	none;
		fill-rule:	evenodd;
	}
	.style1{
		fill:	#000000;
	}
</style><title>source twitter</title>
    <description>Created with Sketch (http://www.bohemiancoding.com/sketch)</description>
    <defs/>
    <g sketch:type="MSPage" class="style0">
        <g sketch:type="MSArtboardGroup" class="style1">
            <path d="M20 2 C19.3 2.3 18.5 2.5 17.6 2.6 C18.5 2.1 19.1 1.3 19.4 0.4 C18.7 0.8 17.8 1.2 16.8 1.3 C16.1 0.6 15 0.1 13.8 0.1 C11.6 0.1 9.7 1.9 9.7 4.1 C9.7 4.4 9.8 4.7 9.8 5 C6.4 4.8 3.4 3.2 1.4 0.8 C1 1.4 0.8 2.1 0.8 2.8 C0.8 4.2 1.6 5.5 2.7 6.2 C2 6.2 1.4 6 0.8 5.7 C0.8 5.7 0.8 5.7 0.8 5.7 C0.8 7.7 2.2 9.3 4.1 9.7 C3.8 9.8 3.4 9.8 3 9.8 C2.7 9.8 2.5 9.8 2.2 9.7 C2.8 11.3 4.3 12.5 6.1 12.5 C4.7 13.6 2.9 14.3 1 14.3 C0.6 14.3 0.3 14.2 0 14.2 C1.8 15.4 4 16 6.3 16 C13.8 16 18 9.9 18 4.6 C18 4.4 18 4.2 18 4 C18.8 3.5 19.4 2.8 20 2 " sketch:type="MSShapeGroup"/>
        </g>
    </g>
</svg>
