<?xml version="1.0" encoding="utf-8"?>
<!-- Generator: Adobe Illustrator 17.0.0, SVG Export Plug-In . SVG Version: 6.00 Build 0)  -->
<!DOCTYPE svg PUBLIC "-//W3C//DTD SVG 1.1//EN" "http://www.w3.org/Graphics/SVG/1.1/DTD/svg11.dtd">
<svg version="1.1" id="Layer_1" xmlns="http://www.w3.org/2000/svg" xmlns:xlink="http://www.w3.org/1999/xlink" x="0px" y="0px"
	 width="100px" height="100px" viewBox="0 0 100 100" enable-background="new 0 0 100 100" xml:space="preserve">
<g>
	<path fill="#FFFFFF" d="M50,65.703c8.638,0,15.643-7.002,15.643-15.642V18.642C65.643,10.005,58.637,3,50,3
		c-8.64,0-15.642,7.005-15.642,15.642v31.419C34.357,58.701,41.36,65.703,50,65.703z"/>
	<path fill="#FFFFFF" d="M72.935,43.702v6.38c0,12.648-10.287,22.935-22.935,22.935S27.065,62.73,27.065,50.082v-6.38h-6.27v6.38
		c0,15.045,11.435,27.465,26.07,29.035v11.612H29.616V97h40.77v-6.271h-17.25V79.117c14.635-1.569,26.07-13.989,26.07-29.035v-6.38
		C79.205,43.702,72.935,43.702,72.935,43.702z"/>
</g>
<path fill="#FFFFFF" d="M491.365-343.589c4.352,0,7.881-3.528,7.881-7.88v-15.829c-0.001-4.351-3.53-7.88-7.881-7.88
	c-4.353,0-7.88,3.529-7.88,7.88v15.829C483.484-347.117,487.011-343.589,491.365-343.589z"/>
<path fill="#FFFFFF" d="M502.919-354.673v3.214c0,6.372-5.182,11.554-11.554,11.554c-6.372,0-11.554-5.183-11.554-11.554v-3.214
	h-3.159v3.214c0,7.58,5.761,13.837,13.134,14.628v5.85h-8.69v3.159h20.54v-3.159h-8.69v-5.85c7.373-0.79,13.134-7.048,13.134-14.628
	v-3.214C506.078-354.673,502.919-354.673,502.919-354.673z"/>
</svg>
