<?xml version="1.0" encoding="UTF-8" standalone="no"?>
<svg width="20px" height="16px" viewBox="0 0 20 16" version="1.1" xmlns="http://www.w3.org/2000/svg" xmlns:xlink="http://www.w3.org/1999/xlink" xmlns:sketch="http://www.bohemiancoding.com/sketch/ns">
    <title>source twitter</title>
    <description>Created with Sketch (http://www.bohemiancoding.com/sketch)</description>
    <defs></defs>
    <g id="Page-1" stroke="none" stroke-width="1" fill="none" fill-rule="evenodd" sketch:type="MSPage">
        <g id="Artboard-1" sketch:type="MSArtboardGroup" transform="translate(-16.000000, -31.000000)" fill="#000000">
            <path d="M36,32.9550028 C35.2642,33.2753954 34.4733,33.4919353 33.6434,33.5892113 C34.4904,33.0907574 35.1411,32.3014567 35.4475,31.3608923 C34.6546,31.8225365 33.7765,32.1576531 32.8418,32.3382666 C32.0934,31.5554445 31.027,31.0664138 29.8468,31.0664138 C27.5808,31.0664138 25.7435,32.8697021 25.7435,35.0939966 C25.7435,35.4096776 25.7798,35.7171132 25.8498,36.0118862 C22.4396,35.8439353 19.4161,34.2404015 17.3924,31.8035917 C17.0392,32.3984383 16.8368,33.0903647 16.8368,33.8285242 C16.8368,35.225923 17.5612,36.4587083 18.6622,37.180966 C17.9896,37.160058 17.3569,36.9788555 16.8037,36.6772113 C16.8033,36.6939966 16.8033,36.7107819 16.8033,36.7278617 C16.8033,38.6792727 18.2177,40.30715 20.0948,40.6772113 C19.7505,40.769285 19.388,40.818561 19.0138,40.818561 C18.7494,40.818561 18.4923,40.7932359 18.2418,40.7462175 C18.7639,42.3463156 20.2792,43.5108801 22.0748,43.5432727 C20.6705,44.6236163 18.9013,45.2675426 16.9788,45.2675426 C16.6476,45.2675426 16.321,45.2484015 16,45.2111991 C17.8159,46.3539721 19.9727,47.0208678 22.2899,47.0208678 C29.8372,47.0208678 33.9645,40.8835426 33.9645,35.5610396 C33.9645,35.3864138 33.9604,35.2127696 33.9525,35.0400089 C34.7543,34.472058 35.4499,33.7627574 36,32.9550028" id="Fill-1" sketch:type="MSShapeGroup"></path>
        </g>
    </g>
</svg>